<svg height="511pt" viewBox="0 -11 511.99979 511" width="511pt" xmlns="http://www.w3.org/2000/svg"><path d="m433 245.132812c0 119.570313-96.929688 216.5-216.5 216.5s-216.5-96.929687-216.5-216.5c0-119.570312 96.929688-216.5 216.5-216.5s216.5 96.929688 216.5 216.5zm0 0" fill="#6380d2"/><path d="m216.5 412.007812c-92.015625 0-166.871094-74.859374-166.871094-166.875 0-92.011718 74.855469-166.871093 166.871094-166.871093s166.875 74.859375 166.875 166.871093c0 92.015626-74.859375 166.875-166.875 166.875zm0 0" fill="#7f9ae2"/><path d="m211.558594 323.535156c-26.570313-.660156-46.554688-14.933594-46.554688-27.230468 0-6.152344 5.488282-15.375 12.296875-15.375 8.34375 0 14.933594 14.273437 34.257813 16.46875v-43.699219c-19.984375-7.464844-42.601563-16.03125-42.601563-44.140625 0-27.890625 20.644531-39.96875 42.601563-42.824219v-6.148437c0-2.855469 3.296875-5.492188 7.46875-5.492188 3.730468 0 7.464844 2.636719 7.464844 5.492188v5.710937c14.273437.4375 37.550781 4.609375 37.550781 17.347656 0 5.050781-3.511719 15.152344-11.636719 15.152344-6.152344 0-11.203125-7.027344-25.914062-8.125v38.648437c19.542968 7.25 41.503906 17.128907 41.503906 46.996094 0 27.011719-16.910156 42.605469-41.503906 46.554688v6.808594c0 2.855468-3.734376 5.492187-7.46875 5.492187-4.171876 0-7.464844-2.636719-7.464844-5.492187zm1.757812-99.042968v-33.164063c-10.980468 1.757813-17.570312 7.027344-17.570312 15.375 0 9.664063 7.46875 13.835937 17.570312 17.789063zm11.417969 34.476562v38.210938c9.664063-1.976563 16.472656-7.683594 16.472656-18.007813 0-10.761719-7.03125-16.03125-16.472656-20.203125zm0 0" fill="#fff"/><path d="m509.222656 135.535156-76.320312-118.15625c-6.796875-10.523437-18.46875-16.878906-30.996094-16.878906s-24.203125 6.355469-31 16.878906l-76.320312 118.15625c-7.382813 11.429688.824218 26.5 14.433593 26.5h38.871094v312.769532c0 8.265624 6.699219 14.964843 14.964844 14.964843h78.101562c8.265625 0 14.964844-6.699219 14.964844-14.964843v-312.769532h38.871094c13.609375 0 21.8125-15.070312 14.429687-26.5zm0 0" fill="#76e6d5"/></svg>