<?xml version="1.0" encoding="iso-8859-1"?>
<!-- Generator: Adobe Illustrator 19.0.0, SVG Export Plug-In . SVG Version: 6.00 Build 0)  -->
<svg version="1.1" id="Capa_1" xmlns="http://www.w3.org/2000/svg" xmlns:xlink="http://www.w3.org/1999/xlink" x="0px" y="0px"
	 viewBox="0 0 512.001 512.001" style="enable-background:new 0 0 512.001 512.001;" xml:space="preserve">
<g>
	<path style="fill:#1B43BA;" d="M46.546,186.187h93.089c25.706,0,46.544-20.839,46.545-46.545V46.554
		c0-25.706-20.838-46.544-46.544-46.545h-0.001H46.546c-25.706,0-46.545,20.838-46.545,46.544v0.001v93.089
		C0.001,165.348,20.84,186.187,46.546,186.187z M46.546,46.554h93.089v93.089H46.546V46.554z"/>
	<path style="fill:#1B43BA;" d="M139.634,325.821H46.546c-25.706,0-46.545,20.838-46.545,46.544v0.001v93.089
		c0,25.706,20.839,46.544,46.545,46.545h93.089c25.706,0,46.544-20.839,46.545-46.545v-93.089
		C186.179,346.661,165.341,325.821,139.634,325.821C139.635,325.821,139.634,325.821,139.634,325.821z M139.634,465.455H46.546
		v-93.089h93.089V465.455z"/>
	<path style="fill:#1B43BA;" d="M465.447,325.821h-93.089c-25.706,0-46.544,20.838-46.545,46.544v0.001v93.089
		c0,25.706,20.839,46.544,46.545,46.545h93.089c25.706,0,46.544-20.839,46.545-46.545v-93.089
		C511.992,346.661,491.153,325.821,465.447,325.821L465.447,325.821z M465.447,465.455h-93.089v-93.089h93.089V465.455z"/>
	<circle style="fill:#1B43BA;" cx="477.079" cy="34.919" r="34.908"/>
	<circle style="fill:#1B43BA;" cx="477.079" cy="151.284" r="34.908"/>
	<circle style="fill:#1B43BA;" cx="360.725" cy="34.919" r="34.908"/>
	<path style="fill:#1B43BA;" d="M255.996,186.187c12.853,0,23.272-10.419,23.272-23.272v-23.272
		c0-12.853,10.418-23.272,23.271-23.272h0.001c12.853,0,23.272-10.419,23.272-23.272s-10.419-23.272-23.272-23.272
		s-23.272-10.419-23.272-23.272V23.282C279.274,10.428,268.858,0.005,256.005,0c-12.853-0.005-23.276,10.41-23.282,23.263
		c0,0.005,0,0.012,0,0.017v139.634C232.723,175.768,243.143,186.187,255.996,186.187L255.996,186.187z"/>
	<path style="fill:#1B43BA;" d="M255.996,232.732c-12.853,0-23.272-10.419-23.272-23.272c-0.008-12.853-10.433-23.265-23.286-23.258
		c-12.842,0.008-23.25,10.416-23.258,23.258c0,12.853-10.419,23.272-23.272,23.272H23.275c-12.855,0-23.274,10.419-23.274,23.272
		c0,12.853,10.419,23.272,23.272,23.272h139.634c12.853,0,23.272,10.418,23.272,23.271v0.001c0,12.853,10.419,23.272,23.272,23.272
		s23.272,10.418,23.272,23.271v0.001v46.545c0,12.853,10.419,23.272,23.272,23.272c12.853,0,23.274-10.418,23.274-23.271V256.004
		c0-12.853-10.418-23.272-23.271-23.272C255.996,232.732,255.996,232.732,255.996,232.732L255.996,232.732z"/>
	<path style="fill:#1B43BA;" d="M488.719,232.732h-69.817c-12.853,0-23.272-10.419-23.272-23.272v-58.18
		c0-19.279-15.629-34.908-34.908-34.908s-34.908,15.629-34.908,34.908v11.637c0,12.853-10.419,23.272-23.272,23.272
		c-12.853-0.008-23.278,10.405-23.286,23.258c-0.008,12.853,10.405,23.278,23.258,23.286c0.01,0,0.019,0,0.028,0
		c12.853,0,23.272,10.418,23.272,23.271v0.001c0,12.853,10.419,23.272,23.272,23.272h139.634
		c12.853,0.005,23.276-10.41,23.282-23.263c0.005-12.853-10.41-23.276-23.263-23.282
		C488.731,232.732,488.725,232.732,488.719,232.732L488.719,232.732z"/>
	<circle style="fill:#1B43BA;" cx="255.999" cy="488.729" r="23.272"/>
</g>
<g>
</g>
<g>
</g>
<g>
</g>
<g>
</g>
<g>
</g>
<g>
</g>
<g>
</g>
<g>
</g>
<g>
</g>
<g>
</g>
<g>
</g>
<g>
</g>
<g>
</g>
<g>
</g>
<g>
</g>
</svg>
