<svg height="511pt" viewBox="0 -14 511.99965 511" width="511pt" xmlns="http://www.w3.org/2000/svg"><path d="m71.59375 483.75v-178.980469h-71.59375v178.980469zm0 0" fill="#1e81ce"/><path d="m509.382812 265.929688-12.707031-12.617188c-10.484375-10.46875-27.464843-10.46875-37.945312 0l-91.816407 91.90625v-31.5c-.03125-9.875-8.027343-17.871094-17.898437-17.898438h-232.675781l-44.746094 44.746094v125.285156l44.746094-44.746093h250.574218l142.46875-142.46875c3.488282-3.515625 3.488282-9.191407 0-12.707031zm0 0" fill="#ffdaaa"/><path d="m411.660156 295.820312v-35.796874h-143.1875v35.796874zm0 0" fill="#ffc477"/><path d="m420.605469 260.023438v-35.796876h-143.183594v35.796876zm0 0" fill="#ffb655"/><path d="m411.660156 188.429688h-143.1875v35.796874h143.1875zm0 0" fill="#ffc477"/><path d="m241.625 260.023438h-143.183594v35.796874h143.183594zm0 0" fill="#ffb655"/><path d="m232.675781 224.226562h-143.183593v35.796876h143.183593zm0 0" fill="#ffc477"/><path d="m241.625 224.226562v-35.796874h-143.183594v35.796874zm0 0" fill="#ffb655"/><path d="m250.574219 188.429688v-35.796876h-143.183594v35.796876zm0 0" fill="#ffc477"/><path d="m232.675781 116.839844h-143.183593v35.792968h143.183593zm0 0" fill="#ffb655"/><path d="m241.625 116.839844v-35.796875h-143.183594v35.796875zm0 0" fill="#ffc477"/><path d="m465.351562 72.09375c0 39.539062-32.050781 71.589844-71.589843 71.589844-39.542969 0-71.59375-32.050782-71.59375-71.589844s32.050781-71.59375 71.59375-71.59375c39.539062 0 71.589843 32.054688 71.589843 71.59375zm0 0" fill="#ffde55"/><path d="m393.761719 63.144531c-4.945313 0-8.953125-4.007812-8.953125-8.949219 0-4.945312 4.007812-8.949218 8.953125-8.949218 4.941406 0 8.949219 4.003906 8.949219 8.949218h17.894531c-.046875-11.335937-7.207031-21.421874-17.894531-25.203124v-10.59375h-17.898438v10.59375c-13.953125 4.914062-21.28125 20.210937-16.367188 34.164062 3.78125 10.734375 13.933594 17.90625 25.316407 17.886719 4.941406 0 8.949219 4.003906 8.949219 8.949219 0 4.941406-4.007813 8.949218-8.949219 8.949218-4.945313 0-8.953125-4.007812-8.953125-8.949218h-17.894532c.046876 11.335937 7.207032 21.421874 17.894532 25.199218v10.597656h17.902344v-10.597656c13.949218-4.914062 21.277343-20.207031 16.363281-34.160156-3.78125-10.738281-13.933594-17.910156-25.3125-17.886719zm0 0" fill="#ff6243"/><path d="m232.675781 340.566406h134.238281v8.949219h-134.238281zm0 0" fill="#ffc477"/></svg>