<svg height="512pt" viewBox="0 0 512 511" width="512pt" xmlns="http://www.w3.org/2000/svg"><path d="m512 409.886719-162.042969-102.105469v44.292969h-93.957031l-10.675781 53.652343 10.675781 61.972657h93.957031v44.292969zm0 0" fill="#0bd5dd"/><path d="m221.390625 352.074219-96.851563-94.164063v109.179688c0 55.476562 45.132813 100.609375 100.609376 100.609375h30.851562v-115.625zm0 0" fill="#00e5ee"/><path d="m286.851562 44.792969h-30.851562l-21.355469 51.296875 21.355469 64.328125h34.609375l96.851563 94.164062v-109.179687c0-55.476563-45.132813-100.609375-100.609376-100.609375zm0 0" fill="#0dd141"/><path d="m162.046875 44.792969v-44.292969l-162.046875 102.105469 162.046875 102.101562v-44.289062h93.953125v-115.625zm0 0" fill="#52e161"/><path d="m256 124.949219-10.675781 134.464843 10.675781 128.128907c72.511719 0 131.296875-58.785157 131.296875-131.296875 0-72.511719-58.785156-131.296875-131.296875-131.296875zm0 0" fill="#fc7419"/><path d="m124.707031 256.246094c0 72.511718 58.78125 131.296875 131.292969 131.296875v-262.59375c-72.511719 0-131.292969 58.785156-131.292969 131.296875zm0 0" fill="#fda102"/><path d="m256 109.933594-10.675781 10.679687 10.675781 19.351563c64.117188 0 116.28125 52.164062 116.28125 116.28125 0 64.117187-52.164062 116.28125-116.28125 116.28125l-10.675781 15.015625 10.675781 15.011719c80.675781 0 146.308594-65.632813 146.308594-146.308594 0-80.675782-65.632813-146.3125-146.308594-146.3125zm0 0" fill="#fdae02"/><path d="m139.71875 256.246094c0-64.117188 52.164062-116.28125 116.28125-116.28125v-30.03125c-80.675781 0-146.308594 65.636718-146.308594 146.3125 0 80.675781 65.632813 146.308594 146.308594 146.308594v-30.027344c-64.117188 0-116.28125-52.164063-116.28125-116.28125zm0 0" fill="#fdcb02"/><path d="m259.199219 225.710938c10.015625 0 20.6875 2.792968 32.011719 8.539062l11.65625-28.074219c-9.355469-5.253906-21.175782-8.371093-33.324219-9.519531v-17.566406h-13.542969l-10.675781 37.617187 10.675781 9.113281c.996094-.066406 2.050781-.109374 3.199219-.109374zm0 0" fill="#fdd535"/><path d="m256 240.210938-10.675781 19.203124 10.675781 13.039063c7.910156 1.800781 13.542969 3.789063 13.542969 8.089844 0 3.765625-3.617188 6.027343-13.542969 6.21875l-10.675781 15.363281 10.675781 31.277344h13.542969v-18.222656c25.445312-4.429688 38.25-19.863282 38.25-37.59375 0-30.726563-33.433594-33.113282-51.792969-37.375zm0 0" fill="#fdd535"/><g fill="#feea9a"><path d="m254.605469 286.78125c-12.640625 0-27.085938-4.105469-37.921875-10.507812l-12.476563 28.234374c9.851563 6.074219 25.773438 10.507813 42.191407 11.492188v17.402344h9.601562v-46.640625c-.457031.007812-.910156.019531-1.394531.019531zm0 0"/><path d="m246.398438 196.984375c-26.925782 3.773437-40.386719 19.371094-40.386719 37.921875 0 30.089844 31.332031 33.296875 49.988281 37.546875v-32.242187c-6.945312-1.609376-11.738281-3.492188-11.738281-7.277344 0-3.539063 2.9375-6.539063 11.738281-7.113282v-46.730468h-9.601562zm0 0"/></g></svg>