<?xml version="1.0" encoding="UTF-8" standalone="no"?><!DOCTYPE svg PUBLIC "-//W3C//DTD SVG 1.1//EN"
    "http://www.w3.org/Graphics/SVG/1.1/DTD/svg11.dtd">
<svg width="100%" height="100%" viewBox="0 0 376 111" version="1.1"
    xmlns="http://www.w3.org/2000/svg" xmlns:xlink="http://www.w3.org/1999/xlink"
    xml:space="preserve" xmlns:serif="http://www.serif.com/"
    style="fill-rule:evenodd;clip-rule:evenodd;stroke-linejoin:round;stroke-miterlimit:2;"><g><path d="M111,55.5c0,30.651 -24.848,55.5 -55.5,55.5c-30.652,0 -55.5,-24.849 -55.5,-55.5c0,-30.651 24.848,-55.5 55.5,-55.5c30.652,0 55.5,24.849 55.5,55.5" style="fill:#f79319;fill-rule:nonzero;"/><path
    d="M36,59.314l23.5,0c8.925,0 16.186,-7.26 16.186,-16.185c0,-8.925 -7.261,-16.186 -16.186,-16.186l-16.186,0l0,23.436l16.185,0c3.999,0 7.252,-3.253 7.252,-7.251c0,-3.999 -3.253,-7.252 -7.252,-7.252l-7.252,0l0,12.57l-7.314,0l0,-19.884l14.567,0c8.033,0 14.567,6.534 14.567,14.567c0,8.033 -6.534,14.568 -14.567,14.568l-23.5,0l0,-38.071l23.499,0c12.959,0 23.501,10.543 23.501,23.501c0,12.959 -10.542,23.502 -23.501,23.502l-16.185,0l0,16.015l1.619,-1.618l0,-10.566l7.314,0l0,12.665l-16.247,16.249l0,-40.06Z"
    style="fill:#fff;fill-rule:nonzero;" /><path
    d="M176.117,88.243l16.075,0l0,-46.75l-16.075,0l0,46.75Zm8.03,-68.614c-5.233,0 -8.962,3.368 -8.962,8.029c0,4.677 3.729,8.045 8.962,8.045c5.233,0 8.977,-3.368 8.977,-8.045c0,-4.661 -3.744,-8.029 -8.977,-8.029"
    style="fill:#f79319;fill-rule:nonzero;" /><path
    d="M224.796,76.094c-1.007,0.376 -2.367,0.752 -3.715,0.752c-2.707,0 -5.074,-1.685 -5.074,-6.827l0,-15.985l10.646,0l0,-12.541l-10.646,0l0,-12.15l-14.658,0.157l0.038,11.993l0.061,12.541l0,16.27c0,11.398 4.572,19.067 15.566,19.067c4.652,0 7.782,-0.931 9.986,-1.683l-2.204,-11.594Z"
    style="fill:#f79319;fill-rule:nonzero;" /><path
    d="M298.198,59.643c0.947,-5.143 3.94,-7.112 7.489,-7.112c4.857,0 6.361,3.187 6.361,7.112l-13.85,0Zm27.504,3.368c0,-12.541 -6.557,-22.631 -20.391,-22.631c-11.413,0 -22.435,9.354 -22.435,24.496c0,15.519 10.466,24.496 24.119,24.496c5.233,0 11.97,-1.865 17.008,-5.428l-5.234,-9.534c-3.353,1.879 -6.345,2.812 -9.533,2.812c-5.233,0 -9.353,-1.88 -10.842,-7.865l26.646,0c0.286,-1.112 0.662,-3.549 0.662,-6.346"
    style="fill:#f79319;fill-rule:nonzero;" /><path
    d="M376,88.243l-17.202,0l-6.947,-10.856l-7.083,10.856l-16.631,0l15.472,-23.729l-14.736,-23.021l17.218,0l6.21,9.698l6.316,-9.698l16.631,0l-14.722,22.57l15.474,24.18Z"
    style="fill:#f79319;fill-rule:nonzero;" /><path
    d="M144.352,56.386c6.339,0 9.323,-3.173 9.323,-8.578c0,-5.406 -3.356,-7.463 -9.323,-7.463l-6.715,0l0,16.041l6.715,0Zm-22.753,-28.72l23.497,0c13.054,0 24.241,4.852 24.241,20.142c0,14.826 -11.559,21.257 -24.241,21.257l-7.459,0l0,19.208l-16.038,0l0,-60.607Z"
    style="fill:#f79319;fill-rule:nonzero;" /><path
    d="M277.5,88.269l-14.13,0l-0.74,-27.35c0,0 0.61,-14.379 -13.77,-9.589l-0.04,36.939l-13.46,0l0.25,-45.619c0,0 41.2,-17.381 41.77,20.97l0.12,24.649Z"
    style="fill:#f79319;fill-rule:nonzero;" /></g></svg>